<svg xmlns="http://www.w3.org/2000/svg" xmlns:xlink="http://www.w3.org/1999/xlink" xmlns:inkscape="http://www.inkscape.org/namespaces/inkscape" version="1.1" width="240" height="140" viewBox="0 0 240 140">
<defs>
<path id="font_1_1" d="M.1789856 .114868167C.13899231 .047973634 .099990848 .033981325 .055999757 .0309906 .04399109 .02999878 .034988405 .02999878 .034988405 .010986328 .034988405 .004989624 .039993287 0 .04798889 0 .07499695 0 .10598755 .0029907227 .13398743 .0029907227 .16699219 .0029907227 .20199585 0 .23399353 0 .23999024 0 .25299073 0 .25299073 .018997193 .25299073 .02999878 .24398804 .0309906 .23699951 .0309906 .21398926 .032989503 .18998719 .04096985 .18998719 .06593323 .18998719 .077926639 .19599915 .088897708 .20399475 .102890018L.27999879 .23068238H.5309906C.5329895 .2097168 .5469971 .07392883 .5469971 .063949588 .5469971 .033981325 .49499513 .0309906 .47499085 .0309906 .46099855 .0309906 .45098878 .0309906 .45098878 .010986328 .45098878 0 .46299745 0 .46499635 0 .5059967 0 .548996 .0029907227 .58999636 .0029907227 .61499026 .0029907227 .6779938 0 .7029877 0 .70899966 0 .72099307 0 .72099307 .019989014 .72099307 .0309906 .71099856 .0309906 .69799807 .0309906 .6359863 .0309906 .6359863 .037979127 .6329956 .06694031L.57199099 .691803C.56999209 .71180728 .56999209 .7158203 .5529938 .7158203 .5369873 .7158203 .5329895 .7088165 .5269928 .69880679L.1789856 .114868167M.29899598 .26168824 .49598695 .5917816 .5279999 .26168824H.29899598Z"/>
<path id="font_2_7" d="M.68699648 .32714845C.70199587 .32714845 .72099307 .32714845 .72099307 .34713746 .72099307 .36714173 .70199587 .36714173 .6879883 .36714173H.08898926C.07499695 .36714173 .055999757 .36714173 .055999757 .34713746 .055999757 .32714845 .07499695 .32714845 .08999634 .32714845H.68699648M.6879883 .13284302C.70199587 .13284302 .72099307 .13284302 .72099307 .15284729 .72099307 .17285156 .70199587 .17285156 .68699648 .17285156H.08999634C.07499695 .17285156 .055999757 .17285156 .055999757 .15284729 .055999757 .13284302 .07499695 .13284302 .08898926 .13284302H.6879883Z"/>
<path id="font_3_1" d="M.25-2.3587189H.5130005V-2.303711H.30499269V-.0146484379H.5130005V.04034424H.25V-2.3587189Z"/>
<path id="font_2_3" d="M.1269989 .07699585 .23298645 .18003845C.3889923 .31811524 .44898988 .3721466 .44898988 .47216798 .44898988 .5860901 .35899354 .6660156 .23699951 .6660156 .12399292 .6660156 .049987794 .57411196 .049987794 .48516847 .049987794 .4291687 .099990848 .4291687 .102996829 .4291687 .11999512 .4291687 .15499878 .44117738 .15499878 .48217774 .15499878 .5081787 .13699341 .5341797 .101989749 .5341797 .09399414 .5341797 .09199524 .5341797 .08898926 .5331726 .11199951 .59806826 .1659851 .63500979 .22399903 .63500979 .31498719 .63500979 .35798646 .5541382 .35798646 .47216798 .35798646 .39215089 .30799867 .31311036 .25299073 .25108338L.06098938 .036987306C.049987794 .025985718 .049987794 .023986817 .049987794 0H.42099L.44898988 .17404175H.42399598C.4189911 .14402771 .4119873 .1000061 .4019928 .084991458 .394989 .07699585 .32899476 .07699585 .30699159 .07699585H.1269989Z"/>
<path id="font_2_4" d="M.2899933 .35191346C.37199403 .37893678 .42999269 .4490509 .42999269 .52809146 .42999269 .6100464 .34199525 .6660156 .24598694 .6660156 .14498902 .6660156 .068984989 .60606387 .068984989 .53009036 .068984989 .49710084 .09098816 .47808839 .11999512 .47808839 .15098572 .47808839 .17098999 .50009158 .17098999 .5290985 .17098999 .57910159 .12399292 .57910159 .10899353 .57910159 .13999939 .62802127 .20599365 .64100649 .24198914 .64100649 .2829895 .64100649 .33799745 .6190338 .33799745 .5290985 .33799745 .51708987 .33599855 .45906068 .30999757 .4149933 .27999879 .36691285 .24598694 .36390687 .22099304 .36291505 .21299744 .36190797 .18899536 .35990907 .18199158 .35990907 .17399597 .35890199 .16699219 .35791017 .16699219 .3479004 .16699219 .33691407 .17399597 .33691407 .19099427 .33691407H.23498535C.31698609 .33691407 .35398866 .2686615 .35398866 .17037964 .35398866 .034469606 .2849884 .0055389406 .24099732 .0055389406 .19799805 .0055389406 .12298584 .022491456 .08799744 .08137512 .12298584 .07637024 .1539917 .09837341 .1539917 .1363678 .1539917 .17237854 .1269989 .19238281 .09799194 .19238281 .07398987 .19238281 .041992189 .17837525 .041992189 .1343689 .041992189 .043441774 .1349945-.022460938 .24398804-.022460938 .3659973-.022460938 .45700074 .06838989 .45700074 .17037964 .45700074 .252594 .3939972 .33088685 .2899933 .35191346Z"/>
<path id="font_2_5" d="M.2939911 .16503906V.07800293C.2939911 .041992189 .2919922 .0309906 .21798706 .0309906H.19699097V0C.23799134 .0029907227 .2899933 .0029907227 .33198548 .0029907227 .37399293 .0029907227 .4269867 .0029907227 .46798707 0V.0309906H.44699098C.37298585 .0309906 .37098695 .041992189 .37098695 .07800293V.16503906H.47099305V.19602967H.37098695V.65075686C.37098695 .67074587 .37098695 .6767578 .35499574 .6767578 .34599305 .6767578 .34298707 .6767578 .33499146 .66474917L.027999878 .19602967V.16503906H.2939911M.2999878 .19602967H.055999757L.2999878 .5688019V.19602967Z"/>
<path id="font_2_6" d="M.47599793 .609375C.4850006 .6213684 .4850006 .62338259 .4850006 .64437869H.24198914C.11999512 .64437869 .117996219 .65737918 .11399841 .67637637H.08898926L.055999757 .4702301H.08099365C.083999637 .48625184 .09298706 .5493469 .10598755 .56137087 .11299133 .5673828 .19099427 .5673828 .20399475 .5673828H.41099549C.3999939 .5513611 .32099916 .4421997 .29899598 .40914918 .20899964 .27394105 .17599488 .1347351 .17599488 .032577516 .17599488 .022567749 .17599488-.022460938 .22200012-.022460938 .2679901-.022460938 .2679901 .022567749 .2679901 .032577516V.08366394C.2679901 .13873291 .2709961 .19381714 .2789917 .24790955 .2829895 .27093507 .29699708 .35707093 .34098817 .41915895L.47599793 .609375Z"/>
<path id="font_3_2" d="M.22200012-2.303711H.01399231V-2.3587189H.2769928V.04034424H.01399231V-.0146484379H.22200012V-2.303711Z"/>
<path id="font_1_2" d="M.37399293 .6046295C.3829956 .64060977 .38598634 .6516113 .47999574 .6516113 .5099945 .6516113 .5179901 .6516113 .5179901 .6706085 .5179901 .6826172 .5069885 .6826172 .5019989 .6826172 .46899415 .6826172 .3869934 .6796112 .35398866 .6796112 .32398988 .6796112 .25099183 .6826172 .22099304 .6826172 .21398926 .6826172 .20199585 .6826172 .20199585 .6626129 .20199585 .6516113 .21099854 .6516113 .22999573 .6516113 .23199463 .6516113 .25099183 .6516113 .2679901 .6496124 .28599549 .6476135 .29499818 .64660647 .29499818 .6336212 .29499818 .6296234 .2939911 .62661746 .29100038 .614624L.15699768 .07795715C.14698792 .038986207 .14498902 .0309906 .06599426 .0309906 .04899597 .0309906 .038986207 .0309906 .038986207 .010986328 .038986207 0 .04798889 0 .06599426 0H.5289917C.5529938 0 .55400088 0 .55999758 .016998291L.6389923 .23286438C.6429901 .24386597 .6429901 .24586487 .6429901 .24685669 .6429901 .2508545 .6399994 .25785829 .6309967 .25785829 .621994 .25785829 .62098696 .2528534 .6139984 .23686219 .5799866 .14492798 .5359955 .0309906 .36299134 .0309906H.2689972C.25498963 .0309906 .25299073 .0309906 .24699402 .03199768 .23699951 .032989503 .23399353 .033996583 .23399353 .041992189 .23399353 .04498291 .23399353 .04698181 .23899842 .064971927L.37399293 .6046295Z"/>
<path id="font_2_2" d="M.2939911 .64004519C.2939911 .66400149 .2939911 .6660156 .2709961 .6660156 .20899964 .60227969 .12098694 .60227969 .08898926 .60227969V.57128909C.10899353 .57128909 .16799927 .57128909 .21998596 .5972748V.07902527C.21998596 .042999269 .21699524 .0309906 .1269989 .0309906H.09498596V0C.12998963 .0029907227 .21699524 .0029907227 .25698854 .0029907227 .29699708 .0029907227 .38398744 .0029907227 .4189911 0V.0309906H.3869934C.29699708 .0309906 .2939911 .041992189 .2939911 .07902527V.64004519Z"/>
<path id="font_2_1" d="M.45999146 .31976319C.45999146 .39982606 .45498658 .47988893 .41999818 .5539398 .37399293 .65000918 .2919922 .6660156 .25 .6660156 .18998719 .6660156 .116989139 .64001467 .07598877 .54693606 .04399109 .47789 .038986207 .39982606 .038986207 .31976319 .038986207 .24472046 .042999269 .15464783 .083999637 .07859802 .1269989-.0024719239 .19999695-.022460938 .24899292-.022460938 .30299378-.022460938 .3789978-.0014648438 .4229889 .09359741 .45498658 .16265869 .45999146 .2407074 .45999146 .31976319M.24899292-.00047302247C.20999146-.00047302247 .15098572 .024551392 .1329956 .12062073 .12199402 .18066406 .12199402 .2727356 .12199402 .3317871 .12199402 .39582826 .12199402 .46188355 .12998963 .5159149 .14898682 .63500979 .22399903 .64401248 .24899292 .64401248 .28199769 .64401248 .34799195 .6259918 .36698915 .52693179 .3769989 .47088624 .3769989 .39482118 .3769989 .3317871 .3769989 .25672914 .3769989 .18867493 .3659973 .12461853 .35099793 .029556275 .2939911-.00047302247 .24899292-.00047302247Z"/>
<path id="font_1_4" d="M.2579956 .68333438C.2579956 .6843262 .2579956 .69433596 .24499512 .69433596 .22200012 .69433596 .14898682 .6863251 .12298584 .6843262 .114990238 .68333438 .10398865 .6823273 .10398865 .6633301 .10398865 .6523285 .11399841 .6523285 .1289978 .6523285 .1769867 .6523285 .17799378 .6433258 .17799378 .6353302L.1749878 .6153259 .04899597 .11526489C.04598999 .104263309 .04399109 .09725952 .04399109 .08125305 .04399109 .024246216 .08799744-.0107421879 .1349945-.0107421879 .16799927-.0107421879 .19299317 .009246826 .20999146 .04525757 .22799683 .08325195 .23999024 .14126587 .23999024 .14326477 .23999024 .15327454 .23098755 .15327454 .22799683 .15327454 .21798706 .15327454 .21699524 .14926148 .21398926 .13526917 .19699097 .070251468 .17799378 .011245728 .13798523 .011245728 .10798645 .011245728 .10798645 .043258668 .10798645 .057250978 .10798645 .08125305 .10899353 .086257938 .11399841 .10525513L.2579956 .68333438Z"/>
<path id="font_4_2" d="M.5049896 .18203736H.47099305C.46798707 .16001892 .45799256 .100997928 .44499208 .09098816 .43699647 .084991458 .3600006 .084991458 .34599305 .084991458H.1619873C.2669983 .17803955 .3019867 .20603943 .3619995 .25306703 .43598939 .312088 .5049896 .374115 .5049896 .46914674 .5049896 .5900879 .39898683 .6640625 .2709961 .6640625 .14698792 .6640625 .06298828 .57710269 .06298828 .4851532 .06298828 .43414308 .10598755 .42915345 .115997318 .42915345 .13999939 .42915345 .16899109 .44615174 .16899109 .48214723 .16899109 .5001526 .1619873 .53515627 .10998535 .53515627 .14099121 .6060791 .20899964 .62805178 .2559967 .62805178 .35598756 .62805178 .4079895 .5501404 .4079895 .46914674 .4079895 .38212586 .34599305 .3130951 .31399537 .27708436L.07299805 .038986207C.06298828 .02999878 .06298828 .027999878 .06298828 0H.47499085L.5049896 .18203736Z"/>
<path id="font_4_1" d="M.33499146 .63612368C.33499146 .6630554 .33299256 .6640625 .30499269 .6640625 .24099732 .6014404 .1499939 .6004486 .10899353 .6004486V.5644531C.1329956 .5644531 .19898987 .5644531 .2539978 .592453V.08203125C.2539978 .04899597 .2539978 .035995485 .1539917 .035995485H.115997318V0C.13398743 .0009918213 .25698854 .0039978029 .2939911 .0039978029 .32499696 .0039978029 .45098878 .0009918213 .47299195 0V.035995485H.43499757C.33499146 .035995485 .33499146 .04899597 .33499146 .08203125V.63612368Z"/>
<path id="font_1_3" d="M.6349945 .5776062C.644989 .61860659 .6629944 .64860537 .7429962 .6516113 .7480011 .6516113 .7599945 .65260317 .7599945 .6716156 .7599945 .6726074 .7599945 .6826172 .746994 .6826172 .71398928 .6826172 .67900088 .6796112 .644989 .6796112 .61099246 .6796112 .57398989 .6826172 .54100039 .6826172 .5349884 .6826172 .522995 .6826172 .522995 .6626129 .522995 .6516113 .5329895 .6516113 .54100039 .6516113 .59799197 .65060427 .60899356 .62960818 .60899356 .607605 .60899356 .604599 .6069946 .5895996 .60598757 .5866089L.5159912 .22955323C.48199464 .09553528 .36698915 .008529663 .2669983 .008529663 .19898987 .008529663 .14498902 .05253601 .14498902 .1385498 .14498902 .1405487 .14498902 .17254639 .1559906 .21655274L.25299073 .6056061C.2619934 .64160159 .2639923 .6516113 .33699037 .6516113 .36299134 .6516113 .37098695 .6516113 .37098695 .6716156 .37098695 .6826172 .3600006 .6826172 .35699464 .6826172 .32899476 .6826172 .25698854 .6796112 .22898865 .6796112 .19999695 .6796112 .1289978 .6826172 .099990848 .6826172 .09199524 .6826172 .08099365 .6826172 .08099365 .6626129 .08099365 .6516113 .08999634 .6516113 .10899353 .6516113 .11099243 .6516113 .12998963 .6516113 .14698792 .6496124 .16499329 .6476135 .17399597 .64660647 .17399597 .63360598 .17399597 .62760928 .16299439 .5856018 .15699768 .56259158L.1349945 .47459413C.12599182 .4355774 .07798767 .24656677 .07398987 .22755432 .066986087 .19955445 .066986087 .18455506 .066986087 .16955567 .066986087 .047531129 .1579895-.022460938 .2630005-.022460938 .3889923-.022460938 .5130005 .090545658 .54599 .2225647L.6349945 .5776062Z"/>
<path id="font_1_5" d="M.34999085 .056259157C.36099244 .015258789 .3959961-.0107421879 .43899537-.0107421879 .47399903-.0107421879 .49699403 .012252808 .5130005 .044265748 .5299988 .08027649 .54299929 .14129639 .54299929 .14329529 .54299929 .1532898 .5339966 .1532898 .5309906 .1532898 .5209961 .1532898 .519989 .14929199 .5169983 .13528443 .5029907 .07926941 .48399354 .011245728 .44198609 .011245728 .42099 .011245728 .41099549 .024261475 .41099549 .057266237 .41099549 .07926941 .4229889 .12628174 .43099977 .16130066L.45899964 .2693329C.46199037 .28433229 .47200013 .32234193 .47599793 .3373413 .48098756 .36035157 .4909973 .3983612 .4909973 .40437318 .4909973 .42237855 .47698976 .43138124 .46199037 .43138124 .45700074 .43138124 .43099977 .43037416 .4229889 .3963623 .4039917 .323349 .3600006 .14828491 .34799195 .09527588 .34700013 .091278079 .30699159 .011245728 .23399353 .011245728 .18199158 .011245728 .17199707 .056259157 .17199707 .09327698 .17199707 .14929199 .19999695 .22831726 .22599793 .29733277 .23799134 .3273468 .24299622 .34135438 .24299622 .36035157 .24299622 .405365 .21099854 .4423828 .16099549 .4423828 .06599426 .4423828 .0289917 .29733277 .0289917 .28833009 .0289917 .27833558 .038986207 .27833558 .040985109 .27833558 .050994874 .27833558 .051986696 .28033448 .056991579 .29634095 .08198547 .38336183 .11999512 .42037965 .1579895 .42037965 .16699219 .42037965 .18299866 .41937257 .18299866 .38735963 .18299866 .36335755 .17199707 .3343506 .1659851 .31933595 .1289978 .2203064 .10798645 .15829468 .10798645 .10928345 .10798645 .014251709 .1769867-.0107421879 .23098755-.0107421879 .29699708-.0107421879 .33299256 .03425598 .34999085 .056259157Z"/>
<path id="font_5_98" d="M.3600006 .12823487C.3600006 .18122864 .32998658 .21122742 .31799317 .22323609 .2849884 .25523377 .24598694 .26322938 .20399475 .27124024 .147995 .28224183 .08099365 .29522706 .08099365 .35324098 .08099365 .38822938 .10699463 .42922975 .19299317 .42922975 .30299378 .42922975 .30799867 .3392334 .30999757 .30822755 .31098939 .2992401 .32199098 .2992401 .32199098 .2992401 .33499146 .2992401 .33499146 .30422975 .33499146 .32322694V.4242401C.33499146 .4412384 .33499146 .4482422 .32398988 .4482422 .31900025 .4482422 .31698609 .4482422 .3039856 .43623353 .30099488 .43223573 .29100038 .42323304 .2869873 .42022706 .24899292 .4482422 .20799256 .4482422 .19299317 .4482422 .070999149 .4482422 .032989503 .38124085 .032989503 .3252411 .032989503 .29023744 .04899597 .26223756 .07598877 .24023438 .10798645 .2142334 .13598633 .2082367 .20799256 .19422913 .22999573 .19021607 .31199647 .17422486 .31199647 .10221863 .31199647 .051223756 .2769928 .011245728 .19898987 .011245728 .114990238 .011245728 .07899475 .068222049 .05999756 .1532135 .056991579 .16621399 .055999757 .17021179 .04598999 .17021179 .032989503 .17021179 .032989503 .16322327 .032989503 .1452179V.013214111C.032989503-.003753662 .032989503-.0107421879 .04399109-.0107421879 .04899597-.0107421879 .049987794-.009750366 .068984989 .009246826 .070999149 .011245728 .070999149 .013214111 .08898926 .032226564 .1329956-.009750366 .17799378-.0107421879 .19898987-.0107421879 .31399537-.0107421879 .3600006 .05621338 .3600006 .1282196V.12823487Z"/>
<path id="font_5_105" d="M.33198548 .12385559V.18066406H.30699159V.12585449C.30699159 .052108766 .2769928 .014251709 .23999024 .014251709 .17298889 .014251709 .17298889 .10491943 .17298889 .12187195V.3996582H.31599427V.43066407H.17298889V.6142578H.147995C.14698792 .5324249 .116989139 .42565919 .018997193 .42166139V.3996582H.10398865V.12408447C.10398865 .0012512207 .19699097-.0107421879 .23298645-.0107421879 .3039856-.0107421879 .33198548 .060180665 .33198548 .12408447V.12385559Z"/>
<path id="font_5_50" d="M.4149933 .11933899C.4149933 .12934876 .40699769 .13134766 .4019928 .13134766 .3929901 .13134766 .3909912 .12535095 .3889923 .11734009 .35398866 .014251709 .2639923 .014251709 .2539978 .014251709 .20399475 .014251709 .1639862 .044281007 .14099121 .08131409 .11099243 .12934876 .11099243 .19540406 .11099243 .23144531H.3899994C.4119873 .23144531 .4149933 .23144531 .4149933 .2524414 .4149933 .35131837 .36099244 .4482422 .23599243 .4482422 .11999512 .4482422 .027999878 .34532167 .027999878 .22042847 .027999878 .08631897 .1329956-.0107421879 .24798584-.0107421879 .36999513-.0107421879 .4149933 .10032654 .4149933 .11933899M.34899903 .2524414H.11199951C.117996219 .40126039 .20199585 .426239 .23599243 .426239 .33898927 .426239 .34899903 .2913971 .34899903 .2524414Z"/>
<path id="font_5_84" d="M.5209961 .21636963C.5209961 .34336854 .42399598 .4423828 .31199647 .4423828 .23399353 .4423828 .19198609 .39837647 .17199707 .3763733V.4423828L.027999878 .43066407V.3996582C.09899902 .3996582 .10598755 .3936615 .10598755 .34973146V-.117996219C.10598755-.16308594 .09498596-.16308594 .027999878-.16308594V-.1940918L.13999939-.19110108 .25299073-.1940918V-.16308594C.18598938-.16308594 .1749878-.16308594 .1749878-.117996219V.050186159 .059173585C.17999268 .04319763 .22200012-.0107421879 .2979889-.0107421879 .4169922-.0107421879 .5209961 .087127689 .5209961 .21594239V.21636963M.43798829 .21594239C.43798829 .09512329 .36799623 .011245728 .2939911 .011245728 .2539978 .011245728 .21598816 .031219483 .18899536 .07215881 .1749878 .09312439 .1749878 .09411621 .1749878 .114089969V.33674623C.20399475 .38838197 .25299073 .41737367 .3039856 .41737367 .3769989 .41737367 .43798829 .32937623 .43798829 .21636963V.21594239Z"/>
<path id="font_5_82" d="M.4189911 0V.0309906H.3869934C.29699708 .0309906 .2939911 .041992189 .2939911 .07902527V.64012148C.2939911 .6640167 .2939911 .6660156 .2709961 .6660156 .20899964 .60227969 .12098694 .60227969 .08898926 .60227969V.57128909C.10899353 .57128909 .16799927 .57128909 .21998596 .5972748V.07902527C.21998596 .042999269 .21699524 .0309906 .1269989 .0309906H.09498596V0C.12998963 .0029907227 .21699524 .0029907227 .25698854 .0029907227 .29699708 .0029907227 .38398744 .0029907227 .4189911 0Z"/>
<path id="font_5_107" d="M.44898988 .17396546H.42399598C.4189911 .14398194 .4119873 .099990848 .4019928 .084991458 .394989 .07699585 .32899476 .07699585 .30699159 .07699585H.1269989L.23298645 .17996216C.3889923 .31803895 .44898988 .37210084 .44898988 .47216798 .44898988 .5860901 .35899354 .6660156 .23699951 .6660156 .12399292 .6660156 .049987794 .57411196 .049987794 .48516847 .049987794 .4291687 .099990848 .4291687 .102996829 .4291687 .11999512 .4291687 .15499878 .44117738 .15499878 .48217774 .15499878 .5081787 .13699341 .5341797 .101989749 .5341797 .09399414 .5341797 .09199524 .5341797 .08898926 .5331726 .11199951 .59806826 .1659851 .63500979 .22399903 .63500979 .31498719 .63500979 .35798646 .5541382 .35798646 .47216798 .35798646 .39196778 .30799867 .31297303 .25299073 .25097657L.06098938 .036987306C.049987794 .025985718 .049987794 .023986817 .049987794 0H.42099L.44898988 .17396546Z"/>
<path id="font_6_1" d="M.6589966 .23046875C.6759949 .23046875 .69400027 .23046875 .69400027 .25045777 .69400027 .27046205 .6759949 .27046205 .6589966 .27046205H.117996219C.100997928 .27046205 .08299255 .27046205 .08299255 .25045777 .08299255 .23046875 .100997928 .23046875 .117996219 .23046875H.6589966Z"/>
<path id="font_6_2" d="M.3889923 .27801515 .18899536 .47720338C.1769867 .48919679 .1749878 .49121095 .16699219 .49121095 .15699768 .49121095 .14698792 .48220826 .14698792 .47120667 .14698792 .46420289 .14898682 .46218873 .1599884 .45118714L.3600006 .24998474 .1599884 .048797609C.14898682 .03779602 .14698792 .03578186 .14698792 .028778077 .14698792 .01777649 .15699768 .0087890629 .16699219 .0087890629 .1749878 .0087890629 .1769867 .010787964 .18899536 .022781373L.3880005 .2219696 .59498599 .014785767C.5970001 .0137786869 .60398867 .0087890629 .6100006 .0087890629 .621994 .0087890629 .6299896 .01777649 .6299896 .028778077 .6299896 .030776978 .6299896 .03479004 .6269989 .039794923 .6259918 .041793825 .46699525 .19894409 .4169922 .24998474L.59999087 .4331665C.6049957 .43917848 .6199951 .45217896 .625 .45819093 .6259918 .46018983 .6299896 .46420289 .6299896 .47120667 .6299896 .48220826 .621994 .49121095 .6100006 .49121095 .60198977 .49121095 .59799197 .48719789 .58699038 .4761963L.3889923 .27801515Z"/>
<path id="font_5_28" d="M.48298646 .08912659V.14511109H.45799256V.08912659C.45799256 .03112793 .43299867 .025131226 .42199708 .025131226 .3889923 .025131226 .3849945 .070129398 .3849945 .07511902V.27508546C.3849945 .31707765 .3849945 .3560791 .34899903 .39312745 .30999757 .43223573 .2599945 .4482422 .21199036 .4482422 .12998963 .4482422 .06098938 .40115357 .06098938 .335083 .06098938 .30508424 .08099365 .28808595 .10699463 .28808595 .1349945 .28808595 .15299988 .30807496 .15299988 .33407594 .15299988 .3460846 .147995 .37908937 .101989749 .38008119 .1289978 .41519166 .17799378 .426239 .20999146 .426239 .25898744 .426239 .31599427 .38710023 .31599427 .29808045V.26107789C.2649994 .25808717 .19499207 .25508119 .13198853 .22509766 .056991579 .19110108 .03199768 .13911438 .03199768 .09512329 .03199768 .014251709 .1289978-.0107421879 .19198609-.0107421879 .2579956-.0107421879 .3039856 .029251099 .32299806 .07624817 .32699586 .036132814 .35398866-.005859375 .40098573-.005859375 .42199708-.005859375 .48298646 .008132935 .48298646 .08912659M.31599427 .14013672C.31599427 .04525757 .24398804 .011245728 .19898987 .011245728 .1499939 .011245728 .10899353 .04624939 .10899353 .09625244 .10899353 .15124512 .15098572 .23425293 .31599427 .24024964V.14013672Z"/>
<path id="font_5_77" d="M.5349884 0V.0309906C.48298646 .0309906 .45799256 .0309906 .45700074 .061019899V.25221253C.45700074 .3383026 .45700074 .36932374 .42599488 .405365 .4119873 .42237855 .3789978 .4423828 .32099916 .4423828 .24798584 .4423828 .20098877 .39935304 .17298889 .33729554V.4423828L.03199768 .43066407V.3996582C.101989749 .3996582 .10998535 .39266969 .10998535 .34370423V.07595825C.10998535 .0309906 .09899902 .0309906 .03199768 .0309906V0L.14498902 .0029907227 .25698854 0V.0309906C.18998719 .0309906 .1789856 .0309906 .1789856 .07595825V.25978089C.1789856 .36431886 .25 .42037965 .31399537 .42037965 .3769989 .42037965 .3880005 .36631776 .3880005 .30926515V.076034549C.3880005 .0309906 .3769989 .0309906 .30999757 .0309906V0L.4229889 .0029907227 .5349884 0Z"/>
<path id="font_5_47" d="M.5269928 0V.0309906C.45700074 .0309906 .44898988 .038009645 .44898988 .0871582V.69433596L.30499269 .6826172V.6516113C.375 .6516113 .3829956 .64463809 .3829956 .59580996V.38035584C.35398866 .41636659 .31098939 .4423828 .25698854 .4423828 .13899231 .4423828 .033996583 .3443451 .033996583 .21531677 .033996583 .088272098 .13198853-.0107421879 .24598694-.0107421879 .30999757-.0107421879 .35499574 .023254395 .37998963 .055267335V-.0107421879L.5269928 0M.37998963 .117996219C.37998963 .099990848 .37998963 .09799194 .36898805 .08099365 .33898927 .033218385 .2939911 .011245728 .25099183 .011245728 .20599365 .011245728 .16999817 .037216188 .1459961 .075164798 .11999512 .1161499 .116989139 .17320252 .116989139 .21421814 .116989139 .25125123 .11898804 .31129457 .147995 .35632325 .16899109 .38734437 .20698548 .42037965 .26098634 .42037965 .29599 .42037965 .33799745 .405365 .36898805 .3603363 .37998963 .34332276 .37998963 .34132386 .37998963 .32330323V.117996219Z"/>
</defs>
<use data-text="A" xlink:href="#font_1_1" transform="matrix(9.963098,0,0,-9.963397,1.2162933,44.04756)"/>
<use data-text="=" xlink:href="#font_2_7" transform="matrix(9.963098,0,0,-9.963397,11.455811,44.04756)"/>
<use data-text="[" xlink:href="#font_3_1" transform="matrix(9.963098,0,0,-9.963397,21.972336,29.998444)"/>
<use data-text="2" xlink:href="#font_2_3" transform="matrix(9.963098,0,0,-9.963397,27.230607,37.969087)"/>
<use data-text="3" xlink:href="#font_2_4" transform="matrix(9.963098,0,0,-9.963397,42.175233,37.969087)"/>
<use data-text="4" xlink:href="#font_2_5" transform="matrix(9.963098,0,0,-9.963397,27.230607,49.92604)"/>
<use data-text="7" xlink:href="#font_2_6" transform="matrix(9.963098,0,0,-9.963397,42.175233,49.92604)"/>
<use data-text="]" xlink:href="#font_3_2" transform="matrix(9.963098,0,0,-9.963397,47.157594,29.998444)"/>
<use data-text="L" xlink:href="#font_1_2" transform="matrix(9.963098,0,0,-9.963397,83.3904,15.698296)"/>
<use data-text="=" xlink:href="#font_2_7" transform="matrix(9.963098,0,0,-9.963397,92.93789,15.698296)"/>
<use data-text="[" xlink:href="#font_3_1" transform="matrix(9.963098,0,0,-9.963397,103.45541,1.6491776)"/>
<use data-text="1" xlink:href="#font_2_2" transform="matrix(9.963098,0,0,-9.963397,111.92983,9.61982)"/>
<use data-text="0" xlink:href="#font_2_1" transform="matrix(9.963098,0,0,-9.963397,130.08258,9.61982)"/>
<use data-text="l" xlink:href="#font_1_4" transform="matrix(9.963098,0,0,-9.963397,108.71366,21.576775)"/>
<use data-text="2" xlink:href="#font_4_2" transform="matrix(6.9741489,0,0,-6.974358,111.685817,23.0709)"/>
<use data-text="1" xlink:href="#font_4_1" transform="matrix(6.9741489,0,0,-6.974358,115.654109,23.0709)"/>
<use data-text="1" xlink:href="#font_2_2" transform="matrix(9.963098,0,0,-9.963397,130.08972,21.576775)"/>
<use data-text="]" xlink:href="#font_3_2" transform="matrix(9.963098,0,0,-9.963397,135.07199,1.6491776)"/>
<use data-text="U" xlink:href="#font_1_3" transform="matrix(9.963098,0,0,-9.963397,180.69026,15.698296)"/>
<use data-text="=" xlink:href="#font_2_7" transform="matrix(9.963098,0,0,-9.963397,191.3468,15.698296)"/>
<use data-text="[" xlink:href="#font_3_1" transform="matrix(9.963098,0,0,-9.963397,201.86334,1.6491776)"/>
<use data-text="2" xlink:href="#font_2_3" transform="matrix(9.963098,0,0,-9.963397,207.1216,9.61982)"/>
<use data-text="3" xlink:href="#font_2_4" transform="matrix(9.963098,0,0,-9.963397,226.6393,9.61982)"/>
<use data-text="0" xlink:href="#font_2_1" transform="matrix(9.963098,0,0,-9.963397,207.1216,21.576775)"/>
<use data-text="u" xlink:href="#font_1_5" transform="matrix(9.963098,0,0,-9.963397,222.06635,21.576775)"/>
<use data-text="2" xlink:href="#font_4_2" transform="matrix(6.9741489,0,0,-6.974358,227.76963,23.0709)"/>
<use data-text="2" xlink:href="#font_4_2" transform="matrix(6.9741489,0,0,-6.974358,231.73792,23.0709)"/>
<use data-text="]" xlink:href="#font_3_2" transform="matrix(9.963098,0,0,-9.963397,236.21105,1.6491852)"/>
<path transform="matrix(1.00005,0,0,-1.00008,111.860828,98.2549)" stroke-width=".79701" stroke-linecap="butt" stroke-miterlimit="10" stroke-linejoin="miter" fill="none" stroke="#000000" d="M28.3468 85.04042H55.98625"/>
<path transform="matrix(1.00005,0,0,-1.00008,167.84987,13.207672)" stroke-width=".6376" stroke-linecap="round" stroke-linejoin="round" fill="none" stroke="#000000" d="M-1.55415 2.0722C-1.42464 1.29512 0 .1295 .38852 0 0-.1295-1.42464-1.29512-1.55415-2.0722"/>
<use data-text="s" xlink:href="#font_5_98" transform="matrix(9.963098,0,0,-9.963397,143.01038,7.555641)"/>
<use data-text="t" xlink:href="#font_5_105" transform="matrix(9.963098,0,0,-9.963397,146.93585,7.555641)"/>
<use data-text="e" xlink:href="#font_5_50" transform="matrix(9.963098,0,0,-9.963397,150.8115,7.555641)"/>
<use data-text="p" xlink:href="#font_5_84" transform="matrix(9.963098,0,0,-9.963397,155.2351,7.555641)"/>
<use data-text="1" xlink:href="#font_5_82" transform="matrix(9.963098,0,0,-9.963397,160.7746,7.555641)"/>
<use data-text="L" xlink:href="#font_1_2" transform="matrix(9.963098,0,0,-9.963397,86.60657,72.39683)"/>
<use data-text="=" xlink:href="#font_2_7" transform="matrix(9.963098,0,0,-9.963397,96.15405,72.39683)"/>
<use data-text="[" xlink:href="#font_3_1" transform="matrix(9.963098,0,0,-9.963397,106.67157,58.34771)"/>
<use data-text="1" xlink:href="#font_2_2" transform="matrix(9.963098,0,0,-9.963397,111.929828,66.31835)"/>
<use data-text="0" xlink:href="#font_2_1" transform="matrix(9.963098,0,0,-9.963397,126.8645,66.31835)"/>
<use data-text="2" xlink:href="#font_2_3" transform="matrix(9.963098,0,0,-9.963397,111.929828,78.27531)"/>
<use data-text="1" xlink:href="#font_2_2" transform="matrix(9.963098,0,0,-9.963397,126.8645,78.27531)"/>
<use data-text="]" xlink:href="#font_3_2" transform="matrix(9.963098,0,0,-9.963397,131.85584,58.34771)"/>
<use data-text="U" xlink:href="#font_1_3" transform="matrix(9.963098,0,0,-9.963397,185.27149,72.39683)"/>
<use data-text="=" xlink:href="#font_2_7" transform="matrix(9.963098,0,0,-9.963397,195.92804,72.39683)"/>
<use data-text="[" xlink:href="#font_3_1" transform="matrix(9.963098,0,0,-9.963397,206.44458,58.34771)"/>
<use data-text="2" xlink:href="#font_2_3" transform="matrix(9.963098,0,0,-9.963397,211.70282,66.31835)"/>
<use data-text="3" xlink:href="#font_2_4" transform="matrix(9.963098,0,0,-9.963397,226.63751,66.31835)"/>
<use data-text="0" xlink:href="#font_2_1" transform="matrix(9.963098,0,0,-9.963397,211.70282,78.27531)"/>
<use data-text="1" xlink:href="#font_2_2" transform="matrix(9.963098,0,0,-9.963397,226.63751,78.27531)"/>
<use data-text="]" xlink:href="#font_3_2" transform="matrix(9.963098,0,0,-9.963397,231.62882,58.34771)"/>
<path transform="matrix(1.00005,0,0,-1.00008,111.860828,98.2549)" stroke-width=".79701" stroke-linecap="butt" stroke-miterlimit="10" stroke-linejoin="miter" fill="none" stroke="#000000" d="M28.3468 28.3468H55.98625"/>
<path transform="matrix(1.00005,0,0,-1.00008,167.84987,69.90583)" stroke-width=".6376" stroke-linecap="round" stroke-linejoin="round" fill="none" stroke="#000000" d="M-1.55415 2.0722C-1.42464 1.29512 0 .1295 .38852 0 0-.1295-1.42464-1.29512-1.55415-2.0722"/>
<use data-text="s" xlink:href="#font_5_98" transform="matrix(9.963098,0,0,-9.963397,143.01038,64.253177)"/>
<use data-text="t" xlink:href="#font_5_105" transform="matrix(9.963098,0,0,-9.963397,146.93585,64.253177)"/>
<use data-text="e" xlink:href="#font_5_50" transform="matrix(9.963098,0,0,-9.963397,150.8115,64.253177)"/>
<use data-text="p" xlink:href="#font_5_84" transform="matrix(9.963098,0,0,-9.963397,155.2351,64.253177)"/>
<use data-text="2" xlink:href="#font_5_107" transform="matrix(9.963098,0,0,-9.963397,160.7746,64.253177)"/>
<use data-text="u" xlink:href="#font_1_5" transform="matrix(9.963098,0,0,-9.963397,126.06053,38.73414)"/>
<use data-text="2" xlink:href="#font_4_2" transform="matrix(6.9741489,0,0,-6.974358,131.76383,40.228265)"/>
<use data-text="2" xlink:href="#font_4_2" transform="matrix(6.9741489,0,0,-6.974358,135.73212,40.228265)"/>
<use data-text="=" xlink:href="#font_2_7" transform="matrix(9.963098,0,0,-9.963397,142.97238,38.73414)"/>
<use data-text="7" xlink:href="#font_2_6" transform="matrix(9.963098,0,0,-9.963397,153.47348,38.73414)"/>
<use data-text="&#x2212;" xlink:href="#font_6_1" transform="matrix(9.963098,0,0,-9.963397,160.68427,38.73414)"/>
<use data-text="2" xlink:href="#font_2_3" transform="matrix(9.963098,0,0,-9.963397,170.64775,38.73414)"/>
<use data-text="&#x00d7;" xlink:href="#font_6_2" transform="matrix(9.963098,0,0,-9.963397,177.84313,38.73414)"/>
<use data-text="3" xlink:href="#font_2_4" transform="matrix(9.963098,0,0,-9.963397,187.80661,38.73414)"/>
<use data-text="=" xlink:href="#font_2_7" transform="matrix(9.963098,0,0,-9.963397,195.54795,38.73414)"/>
<use data-text="1" xlink:href="#font_2_2" transform="matrix(9.963098,0,0,-9.963397,206.05899,38.73414)"/>
<use data-text="L" xlink:href="#font_1_2" transform="matrix(9.963098,0,0,-9.963397,126.06053,50.690095)"/>
<use data-text="a" xlink:href="#font_5_28" transform="matrix(9.963098,0,0,-9.963397,136.15904,50.690095)"/>
<use data-text="n" xlink:href="#font_5_77" transform="matrix(9.963098,0,0,-9.963397,141.1406,50.690095)"/>
<use data-text="d" xlink:href="#font_5_47" transform="matrix(9.963098,0,0,-9.963397,146.68007,50.690095)"/>
<use data-text="U" xlink:href="#font_1_3" transform="matrix(9.963098,0,0,-9.963397,155.53702,50.690095)"/>
<use data-text="A" xlink:href="#font_1_1" transform="matrix(9.963098,0,0,-9.963397,50.143739,129.09436)"/>
<use data-text="=" xlink:href="#font_2_7" transform="matrix(9.963098,0,0,-9.963397,60.383256,129.09436)"/>
<use data-text="L" xlink:href="#font_1_2" transform="matrix(9.963098,0,0,-9.963397,70.89978,129.09436)"/>
<use data-text="&#x00d7;" xlink:href="#font_6_2" transform="matrix(9.963098,0,0,-9.963397,79.89424,129.09436)"/>
<use data-text="U" xlink:href="#font_1_3" transform="matrix(9.963098,0,0,-9.963397,89.85773,129.09436)"/>
<use data-text="=" xlink:href="#font_2_7" transform="matrix(9.963098,0,0,-9.963397,100.51427,129.09436)"/>
<use data-text="[" xlink:href="#font_3_1" transform="matrix(9.963098,0,0,-9.963397,111.03081,115.04524)"/>
<use data-text="1" xlink:href="#font_2_2" transform="matrix(9.963098,0,0,-9.963397,116.28905,123.015888)"/>
<use data-text="0" xlink:href="#font_2_1" transform="matrix(9.963098,0,0,-9.963397,131.22374,123.015888)"/>
<use data-text="2" xlink:href="#font_2_3" transform="matrix(9.963098,0,0,-9.963397,116.28905,134.97284)"/>
<use data-text="1" xlink:href="#font_2_2" transform="matrix(9.963098,0,0,-9.963397,131.22374,134.97284)"/>
<use data-text="]" xlink:href="#font_3_2" transform="matrix(9.963098,0,0,-9.963397,136.21504,115.04524)"/>
<use data-text="[" xlink:href="#font_3_1" transform="matrix(9.963098,0,0,-9.963397,143.11946,115.04524)"/>
<use data-text="2" xlink:href="#font_2_3" transform="matrix(9.963098,0,0,-9.963397,148.39266,123.015888)"/>
<use data-text="3" xlink:href="#font_2_4" transform="matrix(9.963098,0,0,-9.963397,163.32732,123.015888)"/>
<use data-text="0" xlink:href="#font_2_1" transform="matrix(9.963098,0,0,-9.963397,148.39266,134.97284)"/>
<use data-text="1" xlink:href="#font_2_2" transform="matrix(9.963098,0,0,-9.963397,163.32732,134.97284)"/>
<use data-text="]" xlink:href="#font_3_2" transform="matrix(9.963098,0,0,-9.963397,168.31865,115.04524)"/>
</svg>
