<svg xmlns="http://www.w3.org/2000/svg" xmlns:xlink="http://www.w3.org/1999/xlink" xmlns:inkscape="http://www.inkscape.org/namespaces/inkscape" version="1.1" width="181" height="202" viewBox="0 0 181 202">
<defs>
<path id="font_1_1" d="M.33399964 .30233766C.33999635 .32835389 .36299134 .42037965 .43299867 .42037965 .43798829 .42037965 .46199037 .42037965 .48298646 .40734864 .45498658 .402359 .43499757 .37734986 .43499757 .35334779 .43499757 .33735658 .44599916 .31835938 .47299195 .31835938 .49499513 .31835938 .5269928 .3363495 .5269928 .37635804 .5269928 .42837525 .46798707 .4423828 .43399049 .4423828 .37599183 .4423828 .34098817 .38935853 .32899476 .36634828 .3039856 .43237306 .25 .4423828 .22099304 .4423828 .116989139 .4423828 .05999756 .3133545 .05999756 .28834535 .05999756 .27833558 .069992069 .27833558 .07199097 .27833558 .07998657 .27833558 .08299255 .28033448 .084991458 .28933717 .11898804 .39535523 .18499756 .42037965 .21899414 .42037965 .23799134 .42037965 .272995 .4113617 .272995 .35334779 .272995 .32235719 .2559967 .25532533 .21899414 .11528015 .20298767 .053268434 .16799927 .011245728 .12399292 .011245728 .117996219 .011245728 .09498596 .011245728 .07398987 .024276734 .09899902 .029266358 .12098694 .05027771 .12098694 .07827759 .12098694 .105270389 .09899902 .11328125 .083999637 .11328125 .053985597 .11328125 .0289917 .08728027 .0289917 .055267335 .0289917 .009246826 .07899475-.0107421879 .12298584-.0107421879 .18899536-.0107421879 .22499085 .059280397 .22799683 .0652771 .23999024 .028274537 .27598573-.0107421879 .33599855-.0107421879 .43899537-.0107421879 .49598695 .118270877 .49598695 .14328003 .49598695 .1532898 .4869995 .1532898 .48399354 .1532898 .47499085 .1532898 .47299195 .14929199 .47099305 .14228821 .43798829 .03527832 .36999513 .011245728 .33799745 .011245728 .29899598 .011245728 .2829895 .043273927 .2829895 .07727051 .2829895 .09927368 .2889862 .121276859 .2999878 .16529846L.33399964 .30233766Z"/>
<path id="font_1_2" d="M.48599244 .38136292C.48999024 .39537049 .48999024 .39736939 .48999024 .40437318 .48999024 .42237855 .47599793 .43138124 .46099855 .43138124 .45098878 .43138124 .43499757 .42536927 .42599488 .41036988 .42399598 .405365 .41600038 .37435914 .4119873 .35635377 .40499879 .33035279 .397995 .30334474 .3919983 .27633668L.34700013 .09628296C.34298707 .08126831 .2999878 .011245728 .23399353 .011245728 .18299866 .011245728 .17199707 .055267335 .17199707 .0922699 .17199707 .1382904 .18899536 .20030213 .22299195 .28833009 .23899842 .3293457 .24299622 .3403473 .24299622 .36035157 .24299622 .405365 .21099854 .4423828 .16099549 .4423828 .06599426 .4423828 .0289917 .29733277 .0289917 .28833009 .0289917 .27833558 .038986207 .27833558 .040985109 .27833558 .050994874 .27833558 .051986696 .28033448 .056991579 .29634095 .083999637 .3903656 .12399292 .42037965 .1579895 .42037965 .1659851 .42037965 .18299866 .42037965 .18299866 .3883667 .18299866 .36335755 .17298889 .3373413 .1659851 .31834413 .12599182 .21231079 .10798645 .1552887 .10798645 .10827637 .10798645 .019256592 .17098999-.0107421879 .22999573-.0107421879 .2689972-.0107421879 .30299378 .0062561037 .33099366 .03425598 .31799317-.017745972 .30599977-.06674194 .2659912-.11973572 .23999024-.15385437 .20199585-.18309021 .1559906-.18309021 .14199829-.18309021 .09700012-.18005371 .07998657-.14074707 .09599304-.14074707 .10899353-.14074707 .12298584-.1287384 .1329956-.11973572 .14299011-.10673523 .14299011-.08773804 .14299011-.056747438 .115997318-.052734376 .10598755-.052734376 .08299255-.052734376 .049987794-.068740848 .049987794-.11773682 .049987794-.16796875 .09399414-.20507813 .1559906-.20507813 .25898744-.20507813 .3619995-.11373901 .3899994-.00074768069L.48599244 .38136292Z"/>
<path id="font_2_1" d="M.47399903 .6722412C.46299745 .6982422 .45098878 .6982422 .43399049 .6982422 .4059906 .6982422 .4019928 .6902313 .394989 .6722412L.14698792 .07002258C.14099121 .055007936 .13798523 .04699707 .06199646 .04699707H.040985109V0C.07899475 .0009918213 .1269989 .0029907227 .1579895 .0029907227 .19699097 .0029907227 .25299073 .0029907227 .2899933 0V.04699707C.28799439 .04699707 .20098877 .04699707 .20098877 .060012819 .20098877 .061019899 .20399475 .07102966 .20498657 .07203674L.25498963 .19322205H.522995L.58299258 .04699707H.48799134V0C.526001 .0029907227 .62098696 .0029907227 .6639862 .0029907227 .70399478 .0029907227 .7919922 .0029907227 .82699587 0V.04699707H.7299957L.47399903 .6722412M.3889923 .51823428 .5029907 .24023438H.2749939L.3889923 .51823428Z"/>
<path id="font_3_1" d="M.39898683 .62120059C.39898683 .65625 .3919983 .65625 .34999085 .65625 .28799439 .6061554 .20599365 .59213259 .12599182 .59213259H.101989749V.5361328H.12599182C.1659851 .5361328 .22698975 .54312136 .2689972 .5571289V.055999757H.11099243V0C.1599884 .0039978029 .27999879 .0039978029 .33399964 .0039978029 .36999513 .0039978029 .4059906 .0029907227 .44198609 .0029907227 .47200013 .0029907227 .5239868 .0019989014 .5529938 0V.055999757H.39898683V.62120059Z"/>
<path id="font_3_2" d="M.5779877 .2280426H.5149994C.5130005 .21603394 .5039978 .14500427 .48599244 .14099121 .46499635 .13699341 .40499879 .13699341 .38198854 .13699341H.24499512C.2999878 .17800904 .35598756 .21903992 .4139862 .25605775 .49499513 .3080902 .5779877 .3611145 .5779877 .46116639 .5779877 .5812378 .46499635 .65625 .30599977 .65625 .16999817 .65625 .067993167 .60324099 .067993167 .50819399 .067993167 .4501648 .114990238 .42915345 .14498902 .42915345 .18099976 .42915345 .22299195 .4541626 .22299195 .5071869 .22299195 .55522158 .18598938 .57522585 .18299866 .5762329 .21899414 .59924319 .2649994 .600235 .2769928 .600235 .3619995 .600235 .42900086 .5462189 .42900086 .4601593 .42900086 .38311769 .3769989 .3190918 .31900025 .2680664L.08099365 .056991579C.068984989 .04499817 .067993167 .04399109 .067993167 .023986817V0H.5439911L.5779877 .2280426Z"/>
<path id="font_2_3" d="M.7369995 .60957339C.7369995 .631546 .73799136 .6325531 .7659912 .6355438 .7899933 .63853457 .7919922 .63853457 .81999209 .63853457H.8450012V.6855469C.8069916 .6825409 .75 .6825409 .71099856 .6825409 .6689911 .6825409 .61698916 .6825409 .57598879 .6855469V.63853457H.6009979C.61898806 .63853457 .6359863 .6375427 .6539917 .6355438 .68299868 .6325531 .6839905 .631546 .6839905 .60957339V.23301697C.6839905 .08518982 .57499697 .036254884 .46598817 .036254884 .29100038 .036254884 .2889862 .167099 .2889862 .22303772V.63853457H.39698792V.6855469C.35899354 .6825409 .26098634 .6825409 .21798706 .6825409 .1749878 .6825409 .07699585 .6825409 .038986207 .6855469V.63853457H.14698792V.23101807C.14698792 .09817505 .25498963-.0107421879 .46199037-.0107421879 .6519928-.0107421879 .7369995 .106170658 .7369995 .22901917V.60957339Z"/>
<path id="font_2_2" d="M.2829895 .3611908V.63853457H.40098573C.56199648 .63853457 .56399539 .5607147 .56399539 .49986268 .56399539 .44400025 .56399539 .3611908 .39898683 .3611908H.2829895M.5499878 .3401947C.66600039 .37016297 .71699526 .43501283 .71699526 .5008545 .71699526 .60162356 .6069946 .6855469 .4189911 .6855469H.038986207V.63853457H.14698792V.04699707H.038986207V0C.07499695 .0029907227 .17298889 .0029907227 .21499634 .0029907227 .25698854 .0029907227 .35499574 .0029907227 .3909912 0V.04699707H.2829895V.3251953H.3999939C.4139862 .3251953 .45799256 .3251953 .4889984 .29119874 .5209961 .25619508 .5209961 .23721314 .5209961 .16421509 .5209961 .098236087 .5209961 .049240114 .59098818 .01524353 .6349945-.0067443849 .69699099-.0107421879 .73799136-.0107421879 .8450012-.0107421879 .8580017 .07923889 .8580017 .0952301 .8580017 .11723328 .84399417 .11723328 .83399966 .11723328 .8129883 .11723328 .81199648 .10723877 .8109894 .09423828 .80599978 .04724121 .7769928 .025253296 .746994 .025253296 .68699648 .025253296 .6779938 .09623718 .6729889 .13822937 .67099 .14923096 .6629944 .21821594 .6619873 .22320557 .647995 .29319764 .59298709 .32418824 .5499878 .3401947Z"/>
</defs>
<path transform="matrix(1,0,0,-1.00002,29.442002,172.07913)" stroke-width=".3985" stroke-linecap="butt" stroke-miterlimit="10" stroke-linejoin="miter" fill="none" stroke="#000000" d="M-28.3468 0H141.27576"/>
<path transform="matrix(1,0,0,-1.00002,170.71776,172.07913)" stroke-width=".31879" stroke-linecap="round" stroke-linejoin="round" fill="none" stroke="#000000" d="M-1.19551 1.59401C-1.09587 .99626 0 .09961 .29886 0 0-.09961-1.09587-.99626-1.19551-1.59401"/>
<use data-text="x" xlink:href="#font_1_1" transform="matrix(9.9626,0,0,-9.962799,174.696,174.22418)"/>
<path transform="matrix(1,0,0,-1.00002,29.442002,172.07913)" stroke-width=".3985" stroke-linecap="butt" stroke-miterlimit="10" stroke-linejoin="miter" fill="none" stroke="#000000" d="M0-28.3468V112.92896"/>
<path transform="matrix(0,-1.00002,-1,-0,29.442002,59.14791)" stroke-width=".31879" stroke-linecap="round" stroke-linejoin="round" fill="none" stroke="#000000" d="M-1.19551 1.59401C-1.09587 .99626 0 .09961 .29886 0 0-.09961-1.09587-.99626-1.19551-1.59401"/>
<use data-text="y" xlink:href="#font_1_2" transform="matrix(9.9626,0,0,-9.962799,26.821,53.23275)"/>
<path transform="matrix(1,0,0,-1.00002,29.442002,172.07913)" stroke-width=".79701" stroke-linecap="butt" stroke-miterlimit="10" stroke-linejoin="miter" fill="none" stroke="#ff0000" d="M0 0 28.12314 84.36938"/>
<path transform="matrix(.31621,-.948659,-.94864,-.31621633,57.56514,87.70808)" stroke-width=".6376" stroke-linecap="round" stroke-linejoin="round" fill="none" stroke="#ff0000" d="M-1.55415 2.0722C-1.42464 1.29512 0 .1295 .38852 0 0-.1295-1.42464-1.29512-1.55415-2.0722"/>
<use data-text="A" xlink:href="#font_2_1" transform="matrix(9.9626,0,0,-9.962799,26.222,132.22834)" fill="#ff0000"/>
<use data-text="1" xlink:href="#font_3_1" transform="matrix(6.9738,0,0,-6.97394,34.884004,133.72336)" fill="#ff0000"/>
<path transform="matrix(1,0,0,-1.00002,29.442002,172.07913)" stroke-width=".79701" stroke-linecap="butt" stroke-miterlimit="10" stroke-linejoin="miter" fill="none" stroke="#ff0000" d="M0 0 56.46994 169.40982"/>
<path transform="matrix(.31621,-.948659,-.94864,-.31621633,85.91194,2.6659394)" stroke-width=".6376" stroke-linecap="round" stroke-linejoin="round" fill="none" stroke="#ff0000" d="M-1.55415 2.0722C-1.42464 1.29512 0 .1295 .38852 0 0-.1295-1.42464-1.29512-1.55415-2.0722"/>
<use data-text="A" xlink:href="#font_2_1" transform="matrix(9.9626,0,0,-9.962799,61.508005,89.70748)" fill="#ff0000"/>
<use data-text="2" xlink:href="#font_3_2" transform="matrix(6.9738,0,0,-6.97394,70.170009,91.20251)" fill="#ff0000"/>
<path transform="matrix(1,0,0,-1.00002,29.442002,172.07913)" stroke-width=".79701" stroke-linecap="butt" stroke-miterlimit="10" stroke-linejoin="miter" fill="none" stroke="#0000ff" d="M0 0 28.12314 84.36938"/>
<path transform="matrix(.31621,-.948659,-.94864,-.31621633,57.56514,87.70808)" stroke-width=".6376" stroke-linecap="round" stroke-linejoin="round" fill="none" stroke="#0000ff" d="M-1.55415 2.0722C-1.42464 1.29512 0 .1295 .38852 0 0-.1295-1.42464-1.29512-1.55415-2.0722"/>
<use data-text="U" xlink:href="#font_2_3" transform="matrix(9.9626,0,0,-9.962799,36.702005,140.11249)" fill="#0000ff"/>
<use data-text="1" xlink:href="#font_3_1" transform="matrix(6.9738,0,0,-6.97394,45.516008,141.60752)" fill="#0000ff"/>
<path transform="matrix(1,0,0,-1.00002,29.442002,172.07913)" stroke-width=".79701" stroke-linecap="butt" stroke-miterlimit="10" stroke-linejoin="miter" fill="none" stroke="#ff8000" d="M0 0H27.63943"/>
<path transform="matrix(1,0,0,-1.00002,57.08143,172.07913)" stroke-width=".6376" stroke-linecap="round" stroke-linejoin="round" fill="none" stroke="#ff8000" d="M-1.55415 2.0722C-1.42464 1.29512 0 .1295 .38852 0 0-.1295-1.42464-1.29512-1.55415-2.0722"/>
<use data-text="R" xlink:href="#font_2_2" transform="matrix(9.9626,0,0,-9.962799,36.813005,182.63434)" fill="#ff8000"/>
<use data-text="1" xlink:href="#font_3_1" transform="matrix(6.9738,0,0,-6.97394,45.406007,184.12937)" fill="#ff8000"/>
<path transform="matrix(1,0,0,-1.00002,29.442002,172.07913)" stroke-width=".79701" stroke-linecap="butt" stroke-miterlimit="10" stroke-linejoin="miter" fill="none" stroke="#ff8000" d="M0 0V27.63943"/>
<path transform="matrix(0,-1.00002,-1,-0,29.442002,144.43915)" stroke-width=".6376" stroke-linecap="round" stroke-linejoin="round" fill="none" stroke="#ff8000" d="M-1.55415 2.0722C-1.42464 1.29512 0 .1295 .38852 0 0-.1295-1.42464-1.29512-1.55415-2.0722"/>
<use data-text="R" xlink:href="#font_2_2" transform="matrix(9.9626,0,0,-9.962799,12.118004,160.5759)" fill="#ff8000"/>
<use data-text="2" xlink:href="#font_3_2" transform="matrix(6.9738,0,0,-6.97394,20.711007,162.07093)" fill="#ff8000"/>
<path transform="matrix(1,0,0,-1.00002,29.442002,172.07913)" stroke-width=".3985" stroke-linecap="butt" stroke-dasharray="2.98883,2.98883" stroke-miterlimit="10" stroke-linejoin="miter" fill="none" stroke="#000000" d="M56.69362 170.08086 28.3468 85.04042"/>
<path transform="matrix(1,0,0,-1.00002,29.442002,172.07913)" stroke-width=".3985" stroke-linecap="butt" stroke-dasharray="2.98883,2.98883" stroke-miterlimit="10" stroke-linejoin="miter" fill="none" stroke="#000000" d="M56.69362 170.08086V0"/>
</svg>
